<svg xmlns="http://www.w3.org/2000/svg" xmlns:xlink="http://www.w3.org/1999/xlink" width="500" zoomAndPan="magnify" viewBox="0 0 375 374.999991" height="500" preserveAspectRatio="xMidYMid meet" version="1.0"><defs><clipPath id="1f19f4ea20"><path d="M 172 102.496094 L 203 102.496094 L 203 127 L 172 127 Z M 172 102.496094 " clip-rule="nonzero"/></clipPath><clipPath id="46c042401e"><path d="M 3.707031 102.496094 L 63 102.496094 L 63 268 L 3.707031 268 Z M 3.707031 102.496094 " clip-rule="nonzero"/></clipPath><clipPath id="a0cf68689a"><path d="M 45 124 L 189 124 L 189 272.746094 L 45 272.746094 Z M 45 124 " clip-rule="nonzero"/></clipPath><clipPath id="88d1f76603"><path d="M 45 102.496094 L 189 102.496094 L 189 149 L 45 149 Z M 45 102.496094 " clip-rule="nonzero"/></clipPath><clipPath id="e0142b93bd"><path d="M 312 102.496094 L 371.207031 102.496094 L 371.207031 268 L 312 268 Z M 312 102.496094 " clip-rule="nonzero"/></clipPath><clipPath id="66bc38ffc9"><path d="M 186 124 L 329 124 L 329 272.746094 L 186 272.746094 Z M 186 124 " clip-rule="nonzero"/></clipPath><clipPath id="bacc4eb292"><path d="M 186 102.496094 L 329 102.496094 L 329 149 L 186 149 Z M 186 102.496094 " clip-rule="nonzero"/></clipPath></defs><path fill="#b3b3b3" d="M 173.390625 103.308594 L 201.539062 103.308594 L 201.539062 125.703125 L 173.390625 125.703125 Z M 173.390625 103.308594 " fill-opacity="1" fill-rule="nonzero"/><g clip-path="url(#1f19f4ea20)"><path fill="#000000" d="M 202.347656 126.519531 L 172.578125 126.519531 L 172.578125 102.496094 L 202.347656 102.496094 Z M 174.203125 124.890625 L 200.726562 124.890625 L 200.726562 104.125 L 174.203125 104.125 Z M 174.203125 124.890625 " fill-opacity="1" fill-rule="nonzero"/></g><path fill="#b3b3b3" d="M 4.644531 117.269531 L 4.644531 253.183594 C 4.644531 260.890625 10.882812 267.140625 18.582031 267.140625 L 46.769531 267.140625 L 46.769531 125.703125 L 60.84375 103.308594 L 18.582031 103.308594 C 10.882812 103.308594 4.644531 109.558594 4.644531 117.269531 Z M 4.644531 117.269531 " fill-opacity="1" fill-rule="nonzero"/><g clip-path="url(#46c042401e)"><path fill="#000000" d="M 47.582031 267.957031 L 18.582031 267.957031 C 10.449219 267.957031 3.832031 261.328125 3.832031 253.183594 L 3.832031 117.269531 C 3.832031 109.121094 10.449219 102.496094 18.582031 102.496094 L 62.316406 102.496094 L 47.582031 125.9375 Z M 18.582031 104.125 C 11.34375 104.125 5.457031 110.019531 5.457031 117.269531 L 5.457031 253.183594 C 5.457031 260.429688 11.34375 266.328125 18.582031 266.328125 L 45.957031 266.328125 L 45.957031 125.46875 L 59.371094 104.125 Z M 18.582031 104.125 " fill-opacity="1" fill-rule="nonzero"/></g><path fill="#b3b3b3" d="M 54.984375 271.929688 L 179.25 271.929688 C 183.785156 271.929688 187.464844 268.246094 187.464844 263.699219 L 187.464844 125.703125 L 46.769531 125.703125 L 46.769531 263.699219 C 46.769531 268.246094 50.449219 271.929688 54.984375 271.929688 Z M 54.984375 271.929688 " fill-opacity="1" fill-rule="nonzero"/><g clip-path="url(#a0cf68689a)"><path fill="#000000" d="M 179.25 272.742188 L 54.984375 272.742188 C 50.003906 272.742188 45.957031 268.6875 45.957031 263.699219 L 45.957031 124.890625 L 188.277344 124.890625 L 188.277344 263.699219 C 188.277344 268.6875 184.226562 272.742188 179.25 272.742188 Z M 47.582031 126.519531 L 47.582031 263.699219 C 47.582031 267.789062 50.902344 271.113281 54.984375 271.113281 L 179.25 271.113281 C 183.332031 271.113281 186.652344 267.789062 186.652344 263.699219 L 186.652344 126.519531 Z M 47.582031 126.519531 " fill-opacity="1" fill-rule="nonzero"/></g><path fill="#b3b3b3" d="M 63.839844 148.097656 L 170.394531 148.097656 C 179.820312 148.097656 187.464844 140.441406 187.464844 131 L 187.464844 117.40625 C 187.464844 109.621094 181.164062 103.308594 173.390625 103.308594 L 60.84375 103.308594 C 53.070312 103.308594 46.769531 109.621094 46.769531 117.40625 L 46.769531 131 C 46.769531 140.441406 54.410156 148.097656 63.839844 148.097656 Z M 63.839844 148.097656 " fill-opacity="1" fill-rule="nonzero"/><g clip-path="url(#88d1f76603)"><path fill="#000000" d="M 170.394531 148.910156 L 63.839844 148.910156 C 53.976562 148.910156 45.957031 140.875 45.957031 131 L 45.957031 117.40625 C 45.957031 109.183594 52.632812 102.496094 60.84375 102.496094 L 173.390625 102.496094 C 181.597656 102.496094 188.277344 109.183594 188.277344 117.40625 L 188.277344 131 C 188.277344 140.875 180.253906 148.910156 170.394531 148.910156 Z M 60.84375 104.125 C 53.53125 104.125 47.582031 110.082031 47.582031 117.40625 L 47.582031 131 C 47.582031 139.976562 54.875 147.28125 63.839844 147.28125 L 170.394531 147.28125 C 179.359375 147.28125 186.652344 139.976562 186.652344 131 L 186.652344 117.40625 C 186.652344 110.082031 180.703125 104.125 173.390625 104.125 Z M 60.84375 104.125 " fill-opacity="1" fill-rule="nonzero"/></g><path fill="#b3b3b3" d="M 370.28125 117.269531 L 370.28125 253.183594 C 370.28125 260.890625 364.042969 267.140625 356.347656 267.140625 L 328.160156 267.140625 L 328.160156 125.703125 C 328.160156 125.703125 314.085938 103.308594 314.085938 103.308594 L 356.347656 103.308594 C 364.042969 103.308594 370.28125 109.558594 370.28125 117.269531 Z M 370.28125 117.269531 " fill-opacity="1" fill-rule="nonzero"/><g clip-path="url(#e0142b93bd)"><path fill="#000000" d="M 356.347656 267.957031 L 327.347656 267.957031 L 327.347656 125.9375 L 312.613281 102.496094 L 356.347656 102.496094 C 364.480469 102.496094 371.09375 109.121094 371.09375 117.269531 L 371.09375 253.183594 C 371.09375 261.328125 364.480469 267.957031 356.347656 267.957031 Z M 328.96875 266.328125 L 356.347656 266.328125 C 363.582031 266.328125 369.472656 260.429688 369.472656 253.183594 L 369.472656 117.269531 C 369.472656 110.019531 363.582031 104.125 356.347656 104.125 L 315.558594 104.125 L 328.96875 125.46875 Z M 328.96875 266.328125 " fill-opacity="1" fill-rule="nonzero"/></g><path fill="#b3b3b3" d="M 319.945312 271.929688 L 195.679688 271.929688 C 191.140625 271.929688 187.464844 268.246094 187.464844 263.699219 L 187.464844 125.703125 L 328.15625 125.703125 L 328.15625 263.699219 C 328.15625 268.246094 324.480469 271.929688 319.945312 271.929688 Z M 319.945312 271.929688 " fill-opacity="1" fill-rule="nonzero"/><g clip-path="url(#66bc38ffc9)"><path fill="#000000" d="M 319.945312 272.742188 L 195.679688 272.742188 C 190.699219 272.742188 186.652344 268.6875 186.652344 263.699219 L 186.652344 124.890625 L 328.96875 124.890625 L 328.96875 263.699219 C 328.96875 268.6875 324.921875 272.742188 319.945312 272.742188 Z M 188.277344 126.519531 L 188.277344 263.699219 C 188.277344 267.789062 191.597656 271.113281 195.679688 271.113281 L 319.945312 271.113281 C 324.027344 271.113281 327.347656 267.789062 327.347656 263.699219 L 327.347656 126.519531 Z M 188.277344 126.519531 " fill-opacity="1" fill-rule="nonzero"/></g><path fill="#b3b3b3" d="M 311.089844 148.097656 L 204.53125 148.097656 C 195.105469 148.097656 187.464844 140.441406 187.464844 131 L 187.464844 117.40625 C 187.464844 109.621094 193.765625 103.308594 201.535156 103.308594 L 314.085938 103.308594 C 321.855469 103.308594 328.15625 109.621094 328.15625 117.40625 L 328.15625 131 C 328.15625 140.441406 320.515625 148.097656 311.089844 148.097656 Z M 311.089844 148.097656 " fill-opacity="1" fill-rule="nonzero"/><g clip-path="url(#bacc4eb292)"><path fill="#000000" d="M 311.089844 148.910156 L 204.535156 148.910156 C 194.675781 148.910156 186.652344 140.875 186.652344 131 L 186.652344 117.40625 C 186.652344 109.183594 193.328125 102.496094 201.539062 102.496094 L 314.085938 102.496094 C 322.292969 102.496094 328.96875 109.183594 328.96875 117.40625 L 328.96875 131 C 328.96875 140.875 320.949219 148.910156 311.089844 148.910156 Z M 201.539062 104.125 C 194.226562 104.125 188.277344 110.082031 188.277344 117.40625 L 188.277344 131 C 188.277344 139.976562 195.570312 147.28125 204.535156 147.28125 L 311.089844 147.28125 C 320.050781 147.28125 327.347656 139.976562 327.347656 131 L 327.347656 117.40625 C 327.347656 110.082031 321.398438 104.125 314.085938 104.125 Z M 201.539062 104.125 " fill-opacity="1" fill-rule="nonzero"/></g></svg>