<svg xmlns="http://www.w3.org/2000/svg" xmlns:xlink="http://www.w3.org/1999/xlink" width="500" zoomAndPan="magnify" viewBox="0 0 375 374.999991" height="500" preserveAspectRatio="xMidYMid meet" version="1.0"><defs><clipPath id="d127029e26"><path d="M 15.527344 15.097656 L 359.777344 15.097656 L 359.777344 360 L 15.527344 360 Z M 15.527344 15.097656 " clip-rule="nonzero"/></clipPath></defs><g clip-path="url(#d127029e26)"><path fill="#edde80" d="M 253.761719 258.117188 C 258.863281 264.539062 252.726562 271.648438 249.804688 274.339844 C 246.019531 277.953125 241.148438 280.875 235.1875 283.113281 C 232.148438 284.257812 229.742188 284.945312 227.449219 285.230469 L 226.074219 285.402344 C 220.226562 286.035156 213.632812 285.460938 205.894531 283.742188 C 190.589844 280.472656 176.375 271.1875 162.386719 255.425781 C 160.265625 253.359375 144.332031 237.367188 134.128906 214.839844 C 123.867188 191.96875 122.605469 169.613281 122.492188 167.148438 C 119.96875 145.652344 122.550781 128.855469 130.117188 115.273438 C 134.300781 107.820312 138.65625 102.144531 143.355469 98.132812 C 145.019531 96.640625 147.199219 95.265625 150.121094 93.71875 C 155.566406 90.96875 160.898438 89.246094 165.886719 88.730469 C 169.039062 88.445312 179.640625 88.160156 181.019531 96.46875 L 182.394531 110.800781 C 183.023438 117.164062 184.398438 133.269531 184.398438 133.269531 C 185.433594 143.472656 184.226562 148.863281 174.3125 150.238281 C 173.566406 150.296875 172.820312 150.179688 171.902344 150.179688 C 169.667969 149.953125 167.660156 149.835938 165.886719 149.835938 L 158.664062 149.894531 L 158.835938 157.117188 C 159.007812 165.199219 161.871094 186.007812 168.003906 199.707031 C 173.679688 212.320312 186.808594 228.425781 193.742188 234.789062 L 199.074219 239.660156 L 203.890625 234.214844 C 204.980469 232.953125 206.183594 231.40625 206.871094 230.488281 C 208.074219 228.882812 208.648438 228.082031 209.164062 227.679688 C 211.683594 225.503906 214.035156 224.296875 216.386719 224.070312 C 220.972656 223.609375 224.410156 226.9375 228.421875 231.347656 Z M 359.460938 187.496094 C 359.460938 282.59375 282.476562 359.75 187.496094 359.75 C 92.511719 359.75 15.527344 282.59375 15.527344 187.496094 C 15.527344 92.398438 92.511719 15.246094 187.496094 15.246094 C 282.476562 15.246094 359.460938 92.398438 359.460938 187.496094 Z M 333.324219 187.496094 C 333.324219 106.84375 268.03125 41.441406 187.496094 41.441406 C 106.957031 41.441406 41.667969 106.84375 41.667969 187.496094 C 41.667969 268.148438 106.957031 333.554688 187.496094 333.554688 C 268.03125 333.554688 333.324219 268.148438 333.324219 187.496094 Z M 333.324219 187.496094 " fill-opacity="1" fill-rule="nonzero"/></g></svg>