<svg xmlns="http://www.w3.org/2000/svg" xmlns:xlink="http://www.w3.org/1999/xlink" width="500" zoomAndPan="magnify" viewBox="0 0 375 374.999991" height="500" preserveAspectRatio="xMidYMid meet" version="1.0"><defs><clipPath id="4dbfee0a49"><path d="M 10.527344 71.34375 L 364.527344 71.34375 L 364.527344 303.84375 L 10.527344 303.84375 Z M 10.527344 71.34375 " clip-rule="nonzero"/></clipPath></defs><g clip-path="url(#4dbfee0a49)"><path fill="#edde80" d="M 344.191406 71.945312 L 30.507812 71.945312 C 29.847656 71.945312 29.191406 71.980469 28.535156 72.042969 C 27.882812 72.109375 27.230469 72.207031 26.585938 72.335938 C 25.941406 72.464844 25.300781 72.625 24.671875 72.816406 C 24.042969 73.007812 23.421875 73.230469 22.816406 73.480469 C 22.207031 73.734375 21.613281 74.015625 21.03125 74.324219 C 20.453125 74.636719 19.886719 74.972656 19.339844 75.339844 C 18.792969 75.707031 18.265625 76.097656 17.757812 76.515625 C 17.25 76.933594 16.761719 77.375 16.296875 77.839844 C 15.828125 78.304688 15.386719 78.792969 14.972656 79.300781 C 14.554688 79.808594 14.160156 80.339844 13.796875 80.886719 C 13.429688 81.433594 13.089844 81.996094 12.78125 82.578125 C 12.46875 83.15625 12.1875 83.75 11.9375 84.359375 C 11.683594 84.96875 11.460938 85.585938 11.269531 86.214844 C 11.078125 86.847656 10.917969 87.484375 10.789062 88.128906 C 10.660156 88.773438 10.566406 89.425781 10.5 90.082031 C 10.433594 90.734375 10.402344 91.390625 10.402344 92.050781 L 10.402344 283.246094 C 10.402344 283.902344 10.433594 284.558594 10.5 285.214844 C 10.566406 285.871094 10.660156 286.519531 10.789062 287.164062 C 10.917969 287.8125 11.078125 288.449219 11.269531 289.078125 C 11.460938 289.707031 11.683594 290.328125 11.9375 290.933594 C 12.1875 291.542969 12.46875 292.136719 12.78125 292.71875 C 13.089844 293.296875 13.429688 293.863281 13.796875 294.410156 C 14.160156 294.957031 14.554688 295.484375 14.972656 295.992188 C 15.386719 296.503906 15.828125 296.988281 16.296875 297.453125 C 16.761719 297.921875 17.25 298.363281 17.757812 298.78125 C 18.265625 299.199219 18.792969 299.589844 19.339844 299.953125 C 19.886719 300.320312 20.453125 300.660156 21.03125 300.96875 C 21.613281 301.28125 22.207031 301.5625 22.816406 301.8125 C 23.421875 302.066406 24.042969 302.289062 24.671875 302.480469 C 25.300781 302.671875 25.941406 302.832031 26.585938 302.960938 C 27.230469 303.089844 27.882812 303.1875 28.535156 303.25 C 29.191406 303.316406 29.847656 303.347656 30.507812 303.351562 L 344.191406 303.351562 C 344.851562 303.347656 345.507812 303.316406 346.164062 303.25 C 346.816406 303.1875 347.46875 303.089844 348.113281 302.960938 C 348.757812 302.832031 349.398438 302.671875 350.027344 302.480469 C 350.65625 302.289062 351.277344 302.066406 351.882812 301.816406 C 352.492188 301.5625 353.085938 301.28125 353.667969 300.96875 C 354.246094 300.660156 354.8125 300.320312 355.359375 299.957031 C 355.90625 299.589844 356.433594 299.199219 356.941406 298.78125 C 357.453125 298.363281 357.9375 297.921875 358.40625 297.457031 C 358.871094 296.992188 359.3125 296.503906 359.730469 295.996094 C 360.148438 295.484375 360.539062 294.957031 360.90625 294.410156 C 361.269531 293.863281 361.609375 293.300781 361.917969 292.71875 C 362.230469 292.136719 362.511719 291.542969 362.765625 290.9375 C 363.015625 290.328125 363.238281 289.707031 363.429688 289.078125 C 363.621094 288.449219 363.78125 287.8125 363.910156 287.164062 C 364.039062 286.519531 364.136719 285.871094 364.203125 285.214844 C 364.265625 284.558594 364.300781 283.902344 364.300781 283.246094 L 364.300781 92.050781 C 364.300781 91.390625 364.265625 90.734375 364.203125 90.082031 C 364.136719 89.425781 364.039062 88.773438 363.910156 88.128906 C 363.78125 87.484375 363.621094 86.847656 363.429688 86.214844 C 363.238281 85.585938 363.015625 84.96875 362.765625 84.359375 C 362.511719 83.75 362.230469 83.15625 361.917969 82.578125 C 361.609375 81.996094 361.269531 81.433594 360.90625 80.882812 C 360.539062 80.335938 360.148438 79.808594 359.730469 79.300781 C 359.3125 78.792969 358.871094 78.304688 358.40625 77.839844 C 357.9375 77.375 357.453125 76.933594 356.941406 76.515625 C 356.433594 76.097656 355.90625 75.703125 355.359375 75.339844 C 354.8125 74.972656 354.246094 74.636719 353.667969 74.324219 C 353.085938 74.015625 352.492188 73.734375 351.882812 73.480469 C 351.277344 73.226562 350.65625 73.007812 350.027344 72.816406 C 349.398438 72.625 348.757812 72.464844 348.113281 72.335938 C 347.46875 72.207031 346.816406 72.109375 346.164062 72.042969 C 345.507812 71.980469 344.851562 71.945312 344.191406 71.945312 Z M 242.96875 187.648438 L 353.410156 89.203125 C 353.714844 90.128906 353.871094 91.078125 353.882812 92.050781 L 353.882812 283.246094 C 353.871094 284.21875 353.714844 285.167969 353.410156 286.09375 Z M 344.179688 82.363281 C 344.550781 82.378906 344.917969 82.417969 345.28125 82.472656 L 193.761719 217.53125 C 193.324219 217.921875 192.851562 218.273438 192.347656 218.578125 C 191.847656 218.886719 191.320312 219.144531 190.769531 219.351562 C 190.21875 219.5625 189.65625 219.722656 189.074219 219.828125 C 188.496094 219.933594 187.914062 219.988281 187.324219 219.988281 C 186.734375 219.988281 186.152344 219.933594 185.570312 219.828125 C 184.992188 219.722656 184.429688 219.5625 183.878906 219.351562 C 183.328125 219.144531 182.800781 218.886719 182.296875 218.578125 C 181.796875 218.273438 181.324219 217.921875 180.886719 217.53125 L 29.40625 82.472656 C 29.773438 82.417969 30.136719 82.378906 30.507812 82.363281 Z M 21.296875 286.09375 C 20.992188 285.167969 20.832031 284.21875 20.820312 283.246094 L 20.820312 92.050781 C 20.832031 91.078125 20.992188 90.128906 21.296875 89.203125 L 131.730469 187.648438 Z M 30.507812 292.941406 C 30.136719 292.925781 29.773438 292.886719 29.40625 292.828125 L 139.550781 194.632812 L 173.980469 225.308594 C 174.894531 226.125 175.871094 226.847656 176.917969 227.484375 C 177.960938 228.117188 179.054688 228.652344 180.195312 229.089844 C 181.339844 229.523438 182.511719 229.851562 183.714844 230.074219 C 184.914062 230.296875 186.128906 230.40625 187.351562 230.40625 C 188.574219 230.40625 189.785156 230.296875 190.988281 230.074219 C 192.191406 229.851562 193.363281 229.523438 194.503906 229.089844 C 195.644531 228.652344 196.738281 228.117188 197.785156 227.484375 C 198.828125 226.847656 199.808594 226.125 200.71875 225.308594 L 235.144531 194.625 L 345.285156 292.820312 C 344.917969 292.878906 344.550781 292.914062 344.183594 292.929688 Z M 30.507812 292.941406 " fill-opacity="1" fill-rule="nonzero"/></g></svg>