<svg xmlns="http://www.w3.org/2000/svg" xmlns:xlink="http://www.w3.org/1999/xlink" width="500" zoomAndPan="magnify" viewBox="0 0 375 374.999991" height="500" preserveAspectRatio="xMidYMid meet" version="1.0"><defs><clipPath id="1667a13e33"><path d="M 45.402344 94.070312 L 329.652344 94.070312 L 329.652344 119 L 45.402344 119 Z M 45.402344 94.070312 " clip-rule="nonzero"/></clipPath><clipPath id="f5539c0768"><path d="M 45.402344 175 L 329.652344 175 L 329.652344 200 L 45.402344 200 Z M 45.402344 175 " clip-rule="nonzero"/></clipPath><clipPath id="197959fcb3"><path d="M 45.402344 256 L 329.652344 256 L 329.652344 280.820312 L 45.402344 280.820312 Z M 45.402344 256 " clip-rule="nonzero"/></clipPath></defs><g clip-path="url(#1667a13e33)"><path fill="#2b29ff" d="M 329.585938 106.304688 C 329.585938 113.03125 324.132812 118.484375 317.40625 118.484375 L 57.585938 118.484375 C 50.859375 118.484375 45.40625 113.03125 45.40625 106.304688 C 45.40625 99.578125 50.859375 94.125 57.585938 94.125 L 317.40625 94.125 C 324.132812 94.125 329.585938 99.578125 329.585938 106.304688 Z M 329.585938 106.304688 " fill-opacity="1" fill-rule="evenodd"/></g><g clip-path="url(#f5539c0768)"><path fill="#2b29ff" d="M 329.585938 187.5 C 329.585938 194.226562 324.132812 199.679688 317.40625 199.679688 L 57.585938 199.679688 C 50.859375 199.679688 45.40625 194.226562 45.40625 187.5 C 45.40625 180.773438 50.859375 175.320312 57.585938 175.320312 L 317.40625 175.320312 C 324.132812 175.320312 329.585938 180.773438 329.585938 187.5 Z M 329.585938 187.5 " fill-opacity="1" fill-rule="evenodd"/></g><g clip-path="url(#197959fcb3)"><path fill="#2b29ff" d="M 329.585938 268.695312 C 329.585938 275.421875 324.132812 280.875 317.40625 280.875 L 57.585938 280.875 C 50.859375 280.875 45.40625 275.421875 45.40625 268.695312 C 45.40625 261.96875 50.859375 256.515625 57.585938 256.515625 L 317.40625 256.515625 C 324.132812 256.515625 329.585938 261.96875 329.585938 268.695312 Z M 329.585938 268.695312 " fill-opacity="1" fill-rule="evenodd"/></g></svg>