<svg xmlns="http://www.w3.org/2000/svg" xmlns:xlink="http://www.w3.org/1999/xlink" width="500" zoomAndPan="magnify" viewBox="0 0 375 374.999991" height="500" preserveAspectRatio="xMidYMid meet" version="1.0"><defs><clipPath id="c83332d19b"><path d="M 18.75 18.75 L 356.25 18.75 L 356.25 356.25 L 18.75 356.25 Z M 18.75 18.75 " clip-rule="nonzero"/></clipPath></defs><g clip-path="url(#c83332d19b)"><path fill="#edde80" d="M 94.671875 18.75 L 280.128906 18.75 C 301.085938 18.75 320.066406 27.25 333.90625 41.09375 C 347.550781 54.734375 356.25 73.914062 356.25 94.671875 L 356.25 280.128906 C 356.25 301.085938 347.550781 320.066406 333.90625 333.90625 C 320.066406 347.550781 301.085938 356.25 280.128906 356.25 L 94.671875 356.25 C 73.914062 356.25 54.734375 347.550781 41.09375 333.90625 C 27.25 320.066406 18.75 301.085938 18.75 280.128906 L 18.75 94.671875 C 18.75 73.914062 27.25 54.734375 41.09375 41.09375 C 54.734375 27.25 73.914062 18.75 94.671875 18.75 Z M 280.128906 48.800781 L 94.671875 48.800781 C 82.019531 48.800781 70.550781 53.941406 62.246094 62.246094 C 53.941406 70.550781 48.800781 82.019531 48.800781 94.671875 L 48.800781 280.128906 C 48.800781 292.785156 53.941406 304.25 62.246094 312.554688 C 70.550781 321.058594 82.019531 326.195312 94.671875 326.195312 L 280.128906 326.195312 C 292.785156 326.195312 304.25 321.058594 312.554688 312.554688 C 321.058594 304.25 326.195312 292.785156 326.195312 280.128906 L 326.195312 94.671875 C 326.195312 82.019531 321.058594 70.550781 312.554688 62.246094 C 304.25 53.941406 292.785156 48.800781 280.128906 48.800781 Z M 280.128906 48.800781 " fill-opacity="1" fill-rule="nonzero"/></g><path fill="#edde80" d="M 282.105469 77.667969 C 286.257812 77.667969 290.214844 79.25 292.785156 82.019531 C 295.550781 84.785156 297.332031 88.542969 297.332031 92.695312 C 297.332031 96.847656 295.550781 100.800781 292.785156 103.371094 C 290.214844 106.140625 286.257812 107.917969 282.105469 107.917969 C 277.953125 107.917969 274.199219 106.140625 271.429688 103.371094 C 268.660156 100.800781 267.082031 96.847656 267.082031 92.695312 C 267.082031 88.542969 268.660156 84.785156 271.429688 82.019531 C 274.199219 79.25 277.953125 77.667969 282.105469 77.667969 Z M 282.105469 77.667969 " fill-opacity="1" fill-rule="nonzero"/><path fill="#edde80" d="M 187.402344 105.546875 C 210.136719 105.546875 230.503906 114.839844 245.332031 129.46875 C 260.160156 144.300781 269.453125 164.863281 269.453125 187.402344 C 269.453125 210.136719 260.160156 230.503906 245.332031 245.332031 C 230.503906 260.160156 210.136719 269.453125 187.402344 269.453125 C 164.863281 269.453125 144.300781 260.160156 129.46875 245.332031 C 114.839844 230.503906 105.546875 210.136719 105.546875 187.402344 C 105.546875 164.863281 114.839844 144.300781 129.46875 129.46875 C 144.300781 114.839844 164.863281 105.546875 187.402344 105.546875 Z M 223.976562 151.023438 C 214.6875 141.730469 201.636719 135.796875 187.402344 135.796875 C 173.164062 135.796875 160.3125 141.730469 151.023438 151.023438 C 141.730469 160.3125 135.796875 173.164062 135.796875 187.402344 C 135.796875 201.636719 141.730469 214.6875 151.023438 223.976562 C 160.3125 233.269531 173.164062 239.003906 187.402344 239.003906 C 201.636719 239.003906 214.6875 233.269531 223.976562 223.976562 C 233.269531 214.6875 239.003906 201.636719 239.003906 187.402344 C 239.003906 173.164062 233.269531 160.3125 223.976562 151.023438 Z M 223.976562 151.023438 " fill-opacity="1" fill-rule="nonzero"/></svg>