<svg xmlns="http://www.w3.org/2000/svg" xmlns:xlink="http://www.w3.org/1999/xlink" width="500" zoomAndPan="magnify" viewBox="0 0 375 374.999991" height="500" preserveAspectRatio="xMidYMid meet" version="1.0"><defs><clipPath id="632aba852b"><path d="M 22.210938 37.5 L 352.960938 37.5 L 352.960938 337.5 L 22.210938 337.5 Z M 22.210938 37.5 " clip-rule="nonzero"/></clipPath></defs><path fill="#b2d18a" d="M 23.824219 322.0625 L 23.824219 115.890625 C 23.824219 98.640625 33.046875 82.632812 48.082031 74.195312 C 87.410156 52.152344 135.515625 39.140625 187.441406 39.140625 C 239.371094 39.140625 287.472656 52.152344 326.800781 74.234375 C 341.835938 82.671875 351.058594 98.679688 351.058594 115.925781 L 351.058594 322.0625 C 351.058594 329.671875 344.875 335.859375 337.261719 335.859375 L 312.78125 335.859375 C 305.167969 335.859375 298.984375 329.671875 298.984375 322.0625 L 298.984375 278.871094 C 297.519531 290.042969 291.257812 299.679688 282.296875 305.640625 C 276.261719 309.6875 268.988281 312.050781 261.152344 312.050781 L 113.730469 312.050781 C 92.660156 312.050781 75.5625 294.953125 75.5625 273.882812 L 75.5625 127.847656 L 75.261719 127.847656 L 75.261719 322.0625 C 75.261719 329.671875 69.078125 335.859375 61.464844 335.859375 L 37.621094 335.859375 C 30.007812 335.859375 23.824219 329.671875 23.824219 322.0625 " fill-opacity="1" fill-rule="nonzero"/><g clip-path="url(#632aba852b)"><path fill="#000000" d="M 297.40625 278.683594 C 296.058594 289.105469 290.210938 298.441406 281.4375 304.328125 C 275.4375 308.339844 268.425781 310.476562 261.191406 310.476562 L 113.730469 310.476562 C 93.558594 310.476562 77.175781 294.09375 77.175781 273.921875 L 77.175781 126.910156 C 107.320312 105.089844 146.460938 93.054688 187.441406 93.054688 C 228.421875 93.054688 267.527344 105.089844 297.707031 126.910156 L 297.707031 273.882812 C 297.707031 274.332031 297.707031 274.785156 297.671875 275.234375 C 297.632812 275.984375 297.59375 276.734375 297.519531 277.484375 C 297.484375 277.894531 297.445312 278.269531 297.40625 278.683594 Z M 25.433594 115.890625 C 25.433594 99.167969 34.433594 83.71875 48.867188 75.621094 C 89.511719 52.789062 137.425781 40.753906 187.441406 40.753906 C 237.457031 40.753906 285.371094 52.824219 326.015625 75.621094 C 340.488281 83.71875 349.449219 99.167969 349.449219 115.890625 L 349.449219 322.023438 C 349.449219 328.734375 343.972656 334.210938 337.261719 334.210938 L 312.78125 334.210938 C 306.070312 334.210938 300.59375 328.734375 300.59375 322.023438 L 300.59375 278.984375 C 300.632812 278.757812 300.667969 278.496094 300.667969 278.269531 C 300.667969 278.121094 300.707031 277.933594 300.707031 277.78125 C 300.746094 277.519531 300.746094 277.21875 300.78125 276.957031 C 300.78125 276.808594 300.820312 276.65625 300.820312 276.507812 C 300.855469 276.207031 300.855469 275.90625 300.855469 275.609375 C 300.855469 275.457031 300.855469 275.34375 300.894531 275.195312 C 300.894531 274.746094 300.933594 274.332031 300.933594 273.882812 L 300.933594 125.300781 L 300.257812 124.8125 C 269.476562 102.277344 229.394531 89.867188 187.441406 89.867188 C 145.488281 89.867188 105.40625 102.277344 74.625 124.8125 L 73.949219 125.300781 L 73.949219 126.238281 L 73.652344 126.238281 L 73.652344 322.0625 C 73.652344 328.773438 68.175781 334.246094 61.464844 334.246094 L 37.621094 334.246094 C 30.910156 334.246094 25.433594 328.773438 25.433594 322.0625 Z M 37.621094 337.472656 L 61.503906 337.472656 C 69.976562 337.472656 76.914062 330.574219 76.914062 322.0625 L 76.914062 288.769531 C 82.835938 303.351562 97.121094 313.664062 113.769531 313.664062 L 261.191406 313.664062 C 269.101562 313.664062 276.710938 311.339844 283.234375 306.988281 C 289.496094 302.789062 294.410156 296.980469 297.445312 290.304688 L 297.445312 322.0625 C 297.445312 330.574219 304.34375 337.472656 312.855469 337.472656 L 337.375 337.472656 C 345.847656 337.472656 352.785156 330.574219 352.785156 322.0625 L 352.785156 115.890625 C 352.785156 98.003906 343.1875 81.507812 327.703125 72.808594 C 286.496094 49.75 238.019531 37.527344 187.441406 37.527344 C 136.863281 37.527344 88.386719 49.75 47.292969 72.808594 C 31.808594 81.507812 22.210938 98.003906 22.210938 115.890625 L 22.210938 322.023438 C 22.210938 330.574219 29.109375 337.472656 37.621094 337.472656 " fill-opacity="1" fill-rule="nonzero"/></g></svg>